<?xml version="1.0" standalone="no"?>
<!DOCTYPE svg PUBLIC "-//W3C//DTD SVG 20010904//EN"
 "http://www.w3.org/TR/2001/REC-SVG-20010904/DTD/svg10.dtd">
<svg version="1.0" xmlns="http://www.w3.org/2000/svg"
 width="207.000000pt" height="207.000000pt" viewBox="0 0 207.000000 207.000000"
 preserveAspectRatio="xMidYMid meet">
<metadata>
Created by potrace 1.16, written by Peter Selinger 2001-2019
</metadata>
<g transform="translate(0.000000,207.000000) scale(0.100000,-0.100000)"
fill="#000000" stroke="none">
<path d="M931 1999 c-220 -26 -413 -119 -572 -278 -207 -208 -303 -471 -278
-769 30 -359 272 -681 609 -811 219 -85 481 -85 700 0 248 95 454 301 549 549
71 182 84 401 37 584 -103 400 -427 679 -841 726 -100 11 -99 11 -204 -1z
m349 -99 c324 -94 569 -359 636 -689 22 -113 15 -304 -16 -411 -86 -297 -322
-532 -625 -621 -107 -32 -341 -34 -450 -5 -534 143 -812 699 -607 1212 103
256 355 465 637 528 102 23 324 16 425 -14z"/>
<path d="M973 1563 c-3 -10 -14 -38 -23 -63 l-18 -45 -90 -3 c-88 -3 -91 -2
-94 20 -3 22 -7 23 -98 23 -91 0 -95 -1 -98 -22 -3 -20 -10 -23 -44 -23 -54 0
-104 -26 -134 -69 l-24 -36 0 -325 c0 -368 1 -374 76 -417 37 -21 50 -23 247
-23 l209 0 -37 50 c-58 80 -79 141 -79 240 0 64 6 99 23 143 32 81 114 168
199 209 61 30 74 33 162 33 119 -1 182 -24 263 -95 158 -142 175 -387 36 -545
l-31 -35 87 0 c76 0 94 4 136 27 90 49 89 43 89 413 0 310 -1 324 -21 357 -32
52 -70 67 -183 73 l-98 5 -23 60 -22 60 -202 3 c-185 2 -202 1 -208 -15z
m-223 -278 l0 -56 -107 3 -108 3 -3 53 -3 52 110 0 111 0 0 -55z"/>
<path d="M1019 1207 c-77 -32 -126 -72 -170 -140 -115 -178 -55 -417 130 -516
192 -102 411 -28 505 169 27 57 31 76 31 150 0 76 -3 92 -33 152 -41 83 -120
158 -197 187 -78 30 -191 28 -266 -2z m217 -82 c109 -32 184 -136 184 -255 0
-247 -299 -362 -464 -180 -52 58 -69 103 -69 180 0 82 28 145 91 200 73 65
162 84 258 55z"/>
</g>
</svg>
